<?xml version="1.0" encoding="UTF-8"?>
<svg xmlns="http://www.w3.org/2000/svg" width="960" height="420" viewBox="0 0 960 420">
  <rect width="960" height="420" rx="12" fill="#f8fbff" stroke="#cfe3ff"/>
  <text x="480" y="36" text-anchor="middle" font-family="Arial, Helvetica, sans-serif" font-size="18" font-weight="600" fill="#1565c0">Skills at a glance (P0)</text>
  <rect x="380" y="56" width="200" height="56" rx="10" fill="#1976d2"/>
  <text x="480" y="92" text-anchor="middle" font-family="Arial, sans-serif" font-size="16" font-weight="700" fill="#ffffff">bmob (router)</text>
  <line x1="480" y1="112" x2="480" y2="132" stroke="#3593ff" stroke-width="2"/>
  <line x1="120" y1="132" x2="840" y2="132" stroke="#3593ff" stroke-width="2"/>
  <line x1="120" y1="132" x2="120" y2="152" stroke="#3593ff" stroke-width="2"/>
  <line x1="280" y1="132" x2="280" y2="152" stroke="#3593ff" stroke-width="2"/>
  <line x1="440" y1="132" x2="440" y2="152" stroke="#3593ff" stroke-width="2"/>
  <line x1="600" y1="132" x2="600" y2="152" stroke="#3593ff" stroke-width="2"/>
  <line x1="760" y1="132" x2="760" y2="152" stroke="#3593ff" stroke-width="2"/>
  <line x1="840" y1="132" x2="840" y2="152" stroke="#3593ff" stroke-width="2"/>
  <rect x="40" y="152" width="160" height="72" rx="8" fill="#fff" stroke="#90caf9"/>
  <text x="120" y="184" text-anchor="middle" font-family="Arial, sans-serif" font-size="11" font-weight="600" fill="#1565c0">database-js</text>
  <text x="120" y="204" text-anchor="middle" font-family="Arial, sans-serif" font-size="9" fill="#78909c">Web | Node | Mini</text>
  <rect x="200" y="152" width="160" height="72" rx="8" fill="#fff" stroke="#90caf9"/>
  <text x="280" y="184" text-anchor="middle" font-family="Arial, sans-serif" font-size="11" font-weight="600" fill="#1565c0">database-android</text>
  <text x="280" y="204" text-anchor="middle" font-family="Arial, sans-serif" font-size="9" fill="#78909c">Java | Kotlin</text>
  <rect x="360" y="152" width="160" height="72" rx="8" fill="#fff" stroke="#90caf9"/>
  <text x="440" y="184" text-anchor="middle" font-family="Arial, sans-serif" font-size="11" font-weight="600" fill="#1565c0">database-ios</text>
  <text x="440" y="204" text-anchor="middle" font-family="Arial, sans-serif" font-size="9" fill="#78909c">Swift | ObjC</text>
  <rect x="520" y="152" width="160" height="72" rx="8" fill="#fff" stroke="#90caf9"/>
  <text x="600" y="184" text-anchor="middle" font-family="Arial, sans-serif" font-size="11" font-weight="600" fill="#1565c0">database-restful</text>
  <text x="600" y="204" text-anchor="middle" font-family="Arial, sans-serif" font-size="9" fill="#78909c">Python | Go | curl</text>
  <rect x="680" y="152" width="160" height="72" rx="8" fill="#fff" stroke="#90caf9"/>
  <text x="760" y="184" text-anchor="middle" font-family="Arial, sans-serif" font-size="11" font-weight="600" fill="#1565c0">bmob-mcp</text>
  <text x="760" y="204" text-anchor="middle" font-family="Arial, sans-serif" font-size="9" fill="#78909c">7 live tools</text>
  <rect x="800" y="152" width="120" height="72" rx="8" fill="#fff" stroke="#90caf9"/>
  <text x="860" y="184" text-anchor="middle" font-family="Arial, sans-serif" font-size="11" font-weight="600" fill="#1565c0">error-codes</text>
  <text x="860" y="204" text-anchor="middle" font-family="Arial, sans-serif" font-size="9" fill="#78909c">debug lookup</text>
  <rect x="80" y="260" width="800" height="128" rx="10" fill="#e8f4ff" stroke="#90caf9" stroke-dasharray="6 4"/>
  <text x="480" y="292" text-anchor="middle" font-family="Arial, sans-serif" font-size="13" font-weight="600" fill="#1565c0">Coming in P1 / P2</text>
  <text x="480" y="318" text-anchor="middle" font-family="Arial, sans-serif" font-size="11" fill="#546e7a">auth | storage | cloud-function | acl | bql | push | sms | pay</text>
  <text x="480" y="342" text-anchor="middle" font-family="Arial, sans-serif" font-size="11" fill="#546e7a">data-hooks | scheduled-tasks | best-practices</text>
  <text x="480" y="372" text-anchor="middle" font-family="Arial, sans-serif" font-size="10" fill="#90a4ae">Snippets synced from BmobDocs</text>
</svg>
