<svg xmlns="http://www.w3.org/2000/svg" width="960" height="200" viewBox="0 0 960 200" role="img" aria-label="Supported AI coding tools">
  <rect width="960" height="200" rx="12" fill="#fafafa" stroke="#e0e0e0"/>
  <text x="480" y="36" text-anchor="middle" font-family="ui-sans-serif, system-ui, sans-serif" font-size="16" font-weight="600" fill="#37474f">Works with your favorite AI coding tools</text>
  <g font-family="ui-sans-serif, system-ui, sans-serif" font-size="13" font-weight="600">
    <rect x="40" y="64" width="128" height="96" rx="10" fill="#ffffff" stroke="#bdbdbd"/>
    <text x="104" y="108" text-anchor="middle" fill="#212121">Cursor</text>
    <text x="104" y="128" text-anchor="middle" font-size="10" font-weight="400" fill="#757575">.cursor/skills</text>
    <rect x="184" y="64" width="128" height="96" rx="10" fill="#ffffff" stroke="#bdbdbd"/>
    <text x="248" y="108" text-anchor="middle" fill="#212121">Claude Code</text>
    <text x="248" y="128" text-anchor="middle" font-size="10" font-weight="400" fill="#757575">.claude/skills</text>
    <rect x="328" y="64" width="128" height="96" rx="10" fill="#ffffff" stroke="#bdbdbd"/>
    <text x="392" y="108" text-anchor="middle" fill="#212121">OpenAI Codex</text>
    <text x="392" y="128" text-anchor="middle" font-size="10" font-weight="400" fill="#757575">~/.codex/skills</text>
    <rect x="472" y="64" width="128" height="96" rx="10" fill="#ffffff" stroke="#bdbdbd"/>
    <text x="536" y="108" text-anchor="middle" fill="#212121">Gemini CLI</text>
    <text x="536" y="128" text-anchor="middle" font-size="10" font-weight="400" fill="#757575">~/.gemini/skills</text>
    <rect x="616" y="64" width="128" height="96" rx="10" fill="#ffffff" stroke="#bdbdbd"/>
    <text x="680" y="108" text-anchor="middle" fill="#212121">GitHub Copilot</text>
    <text x="680" y="128" text-anchor="middle" font-size="10" font-weight="400" fill="#757575">agent skills</text>
    <rect x="760" y="64" width="160" height="96" rx="10" fill="#e3f2fd" stroke="#3593ff"/>
    <text x="840" y="100" text-anchor="middle" fill="#1565c0">+ more</text>
    <text x="840" y="122" text-anchor="middle" font-size="10" font-weight="400" fill="#546e7a">agentskills.io</text>
    <text x="840" y="140" text-anchor="middle" font-size="10" font-weight="400" fill="#546e7a">compatible hosts</text>
  </g>
  <text x="480" y="182" text-anchor="middle" font-family="ui-sans-serif, system-ui, sans-serif" font-size="11" fill="#90a4ae">Install once with npx skills add  skills load automatically when you mention Bmob</text>
</svg>
